<svg width="600" height="400" viewBox="0 0 600 400" fill="none" xmlns="http://www.w3.org/2000/svg">
  <!-- 背景 -->
  <rect width="600" height="400" fill="#F5F7FA" rx="20"/>
  
  <!-- 装饰圆形 -->
  <circle cx="500" cy="80" r="60" fill="#E6F7FF" opacity="0.6"/>
  <circle cx="100" cy="320" r="40" fill="#E6F7FF" opacity="0.4"/>
  
  <!-- 主要图形 - 书本和设备 -->
  <g transform="translate(150, 100)">
    <!-- 笔记本电脑 -->
    <rect x="50" y="50" width="240" height="160" rx="8" fill="#1890FF"/>
    <rect x="70" y="70" width="200" height="120" rx="4" fill="white"/>
    
    <!-- 书本 -->
    <path d="M320 80 L460 80 L460 220 L320 220 C340 220 340 80 320 80" fill="#722ED1" opacity="0.8"/>
    <rect x="320" y="80" width="20" height="140" fill="#722ED1"/>
    
    <!-- 铅笔 -->
    <rect x="380" y="40" width="120" height="20" rx="4" transform="rotate(45)" fill="#1890FF" opacity="0.6"/>
    
    <!-- 装饰线条 -->
    <line x1="100" y1="100" x2="240" y2="100" stroke="#1890FF" stroke-width="2" opacity="0.4"/>
    <line x1="100" y1="120" x2="220" y2="120" stroke="#1890FF" stroke-width="2" opacity="0.4"/>
    <line x1="100" y1="140" x2="200" y2="140" stroke="#1890FF" stroke-width="2" opacity="0.4"/>
  </g>
  
  <!-- 装饰图案 -->
  <g transform="translate(50, 50)" opacity="0.1">
    <circle cx="0" cy="0" r="4" fill="#1890FF"/>
    <circle cx="20" cy="20" r="4" fill="#1890FF"/>
    <circle cx="40" cy="0" r="4" fill="#1890FF"/>
    <circle cx="0" cy="40" r="4" fill="#1890FF"/>
  </g>
  <g transform="translate(500, 300)" opacity="0.1">
    <circle cx="0" cy="0" r="4" fill="#722ED1"/>
    <circle cx="20" cy="20" r="4" fill="#722ED1"/>
    <circle cx="40" cy="0" r="4" fill="#722ED1"/>
    <circle cx="0" cy="40" r="4" fill="#722ED1"/>
  </g>
</svg> 