<svg width="32" height="32" viewBox="0 0 32 32" fill="none" xmlns="http://www.w3.org/2000/svg">
  <!-- 书本形状 -->
  <path d="M6 7C6 5.89543 6.89543 5 8 5H24C25.1046 5 26 5.89543 26 7V25C26 26.1046 25.1046 27 24 27H8C6.89543 27 6 26.1046 6 25V7Z" fill="#1890FF"/>
  
  <!-- 书页纹理 -->
  <path d="M9 10H23M9 14H23M9 18H23M9 22H18" stroke="white" stroke-width="2" stroke-linecap="round"/>
  
  <!-- 流动效果 -->
  <path d="M20 22C20 22 22 22 23 22C24 22 24.5 23 24.5 23.5C24.5 24 24 25 23 25C22 25 20 25 20 25" stroke="white" stroke-width="2" stroke-linecap="round"/>
</svg> 